<?xml version="1.0" encoding="utf-8"?>
<!-- Generator: Adobe Illustrator 17.1.0, SVG Export Plug-In . SVG Version: 6.00 Build 0)  -->
<!DOCTYPE svg PUBLIC "-//W3C//DTD SVG 1.1//EN" "http://www.w3.org/Graphics/SVG/1.1/DTD/svg11.dtd">
<svg version="1.1" id="flower-background-6" xmlns="http://www.w3.org/2000/svg" xmlns:xlink="http://www.w3.org/1999/xlink"
	 x="0px" y="0px" viewBox="0 0 1010 1010" enable-background="new 0 0 1010 1010" xml:space="preserve">
<g id="flower-background-6-flower-background-6">
	<rect fill="#FAF5E9" width="1010" height="1010"/>
	<g>
		<path fill="#98862E" d="M171.3506,260.0713l5.2021-3.9971C146.9707,158.2544,66.0762,63.8828,7.7998,5.4209L2.168,8.6914
			C154.1611,157.1416,171.3506,260.0713,171.3506,260.0713z"/>
		<path fill="#98862E" d="M176.2866,260.7119l-4.936-0.6406c7.5063,10.1196,15.7261,79.6875,15.7261,79.6875
			C202.3887,332.373,176.2866,260.7119,176.2866,260.7119z"/>
		<path fill="#98862E" d="M143.1616,203.6138c-8.6401,8.6933-29.4892,75.9726-29.4892,75.9726
			C123.2734,280.0859,143.1616,203.6138,143.1616,203.6138z"/>
		<path fill="#98862E" d="M168.0742,196.729l74.8565,14.0298l-1.6177-5.8667C241.313,204.8921,174.5937,191.7739,168.0742,196.729z"
			/>
		<path fill="#98862E" d="M126.2559,130.9922l74.8584,14.0234l-1.6216-5.8623
			C199.4927,139.1533,132.7734,126.0391,126.2559,130.9922z"/>
		<path fill="#98862E" d="M156.6152,75.2866c0,0-66.7192-13.1181-73.2368-8.165l74.854,14.0278L156.6152,75.2866z"/>
		<path fill="#98862E" d="M74.5327,217.8384l26.1538-76.6275C100.6865,141.2109,72.5483,182.1079,74.5327,217.8384z"/>
		<path fill="#98862E" d="M27.7573,145.582l26.1553-76.6299C53.9126,68.9521,25.7729,109.8477,27.7573,145.582z"/>
		<path fill="#98862E" d="M0,958.1348v12.3965c78.2866-156.6524,153.9282-200.5528,153.9282-200.5528l-5.5708-3.4599
			C85.3862,814.7627,35.269,891.1992,0,958.1348z"/>
		<path fill="#98862E" d="M152.79,765.1377l1.1382,4.8408c6.8257-10.5928,69.0332-42.7939,69.0332-42.7939
			C210.6543,715.459,152.79,765.1377,152.79,765.1377z"/>
		<path fill="#98862E" d="M111.0249,816.2539c11.1792,5.0186,81.4927,0.8281,81.4927,0.8281
			C189.5996,807.9209,111.0249,816.2539,111.0249,816.2539z"/>
		<path fill="#98862E" d="M95.8062,795.3633l-13.2525-74.9961l-4.9141,3.582C77.6396,723.9492,88.8701,791.0117,95.8062,795.3633z"
			/>
		<path fill="#98862E" d="M49.0186,857.6641l-13.2525-75.001l-4.9155,3.5869C30.8506,786.25,42.0825,853.3076,49.0186,857.6641z"/>
		<path fill="#98862E" d="M4.3535,920.2998L0,895.665v16.1281C1.5366,916.3223,3.022,919.4629,4.3535,920.2998z"/>
		<path fill="#98862E" d="M148.5195,875.4727l-80.9306,2.5214C67.5889,877.9941,115.7773,889.916,148.5195,875.4727z"/>
		<path fill="#98862E" d="M97.376,944.7051l-80.9278,2.5255C16.4482,947.2305,64.6343,959.1523,97.376,944.7051z"/>
		<path fill="#98862E" d="M446.917,515.9482l-5.8213,3.0264c12.0332,101.4893,75.1914,208.541,122.3545,276.29l6.1191-2.2412
			C445.8579,620.2979,446.917,515.9482,446.917,515.9482z"/>
		<path fill="#98862E" d="M445.3608,434.7422c-16.3671,4.5937-3.1879,79.7109-3.1879,79.7109l4.7441,1.4951
			C441.293,504.6724,445.3608,434.7422,445.3608,434.7422z"/>
		<path fill="#98862E" d="M507.123,506.8145c-9.3706-2.1734-42.3159,69.6464-42.3159,69.6464
			C474.832,569.4111,507.123,506.8145,507.123,506.8145z"/>
		<path fill="#98862E" d="M439.0718,578.8838l-71.2525-26.8877l0.5684,6.0527C368.3877,558.0488,431.7891,582.624,439.0718,578.8838
			z"/>
		<path fill="#98862E" d="M468.7603,650.9209l-71.2525-26.8906l0.5703,6.0556
			C398.0781,630.0859,461.4731,654.6611,468.7603,650.9209z"/>
		<path fill="#98862E" d="M429.1357,700.4668c0,0,63.399,24.5752,70.6822,20.8311l-71.2525-26.8877L429.1357,700.4668z"/>
		<path fill="#98862E" d="M534.8662,574.4531l-39.1435,70.874C495.7227,645.3271,530.5732,609.9805,534.8662,574.4531z"/>
		<path fill="#98862E" d="M529.1494,724.6514c0,0,34.8526-35.3546,39.1455-70.8819L529.1494,724.6514z"/>
		<path fill="#98862E" d="M581.6572,0c9.0822,79.4507,29.9688,181.498,77.8135,255.96l6.415-1.3653
			c0,0-59.2343-70.4453-78.33-254.5947H581.6572z"/>
		<path fill="#98862E" d="M716.3184,318.2627c0,0-47.5995-51.3916-50.4327-63.668l-2.7099,4.1704
			C663.1758,258.7651,700.7666,325.123,716.3184,318.2627z"/>
		<path fill="#98862E" d="M641.2158,196.5142c0,0,71.0987,34.4838,76.9453,26.8515
			C718.1611,223.3657,653.4385,195.5811,641.2158,196.5142z"/>
		<path fill="#98862E" d="M578.5088,272.0293l3.4092,5.0361l37.8984-66.06C611.8193,212.7529,578.5088,272.0293,578.5088,272.0293z"
			/>
		<path fill="#98862E" d="M555.6182,197.5537l3.4091,5.0381l37.8985-66.0606C588.9248,138.2773,555.6182,197.5537,555.6182,197.5537
			z"/>
		<path fill="#98862E" d="M576.1455,62.4644c-8.001,1.7436-41.3037,61.0239-41.3037,61.0239l3.4092,5.0322L576.1455,62.4644z"/>
		<path fill="#98862E" d="M696.5684,153.52c-25.9003-24.6919-75.2764-29.8169-75.2764-29.8169L696.5684,153.52z"/>
		<path fill="#98862E" d="M596.6533,41.2285l75.2803,29.8169C646.0332,46.3496,596.6533,41.2285,596.6533,41.2285z"/>
		<path fill="#98862E" d="M852.6885,290.2095l-5.8545,2.959c0,0,85.3447,60.0551,153.3662,261.3295l5.3887-3.6611
			C978.1143,472.9956,928.0635,359.2207,852.6885,290.2095z"/>
		<path fill="#98862E" d="M781.8105,244.499c0,0,59.1524,37.5215,65.0235,48.6695l1.5547-4.7247
			C848.3887,288.4438,795.0947,233.894,781.8105,244.499z"/>
		<path fill="#98862E" d="M804.2754,336.7187c0,0,69.6709,10.3267,81.25,6.3028
			C885.5254,343.0215,807.9766,327.8418,804.2754,336.7187z"/>
		<path fill="#98862E" d="M926.8604,253.9873l-4.584-3.9966l-19.7627,73.5484
			C909.8008,319.8091,926.8604,253.9873,926.8604,253.9873z"/>
		<path fill="#98862E" d="M968.0176,320.1484l-4.584-4.0009l-19.7617,73.5468C950.958,385.9639,968.0176,320.1484,968.0176,320.1484
			z"/>
		<path fill="#98862E" d="M1007.0293,386.4492l-4.585-3.9985l-19.7617,73.5483
			C989.9697,452.269,1007.0293,386.4492,1007.0293,386.4492z"/>
		<path fill="#98862E" d="M923.3926,408.3262l-80.4014-9.5972C874.3447,415.9839,923.3926,408.3262,923.3926,408.3262z"/>
		<path fill="#98862E" d="M968.2783,481.77l-80.3974-9.5952C919.2305,489.4277,968.2783,481.77,968.2783,481.77z"/>
		<path fill="#98862E" d="M774.3896,738.7129l-5.8544,2.959c0,0,85.3408,60.0547,153.3661,261.3291l5.3847-3.6612
			C899.8115,921.499,849.7646,807.7236,774.3896,738.7129z"/>
		<path fill="#98862E" d="M703.5127,693.002c0,0,59.1475,37.5195,65.0225,48.6699l1.5546-4.7266
			C770.0898,736.9453,716.7959,682.3926,703.5127,693.002z"/>
		<path fill="#98862E" d="M807.2266,791.5244c0,0-77.5489-15.1816-81.25-6.3047
			C725.9766,785.2197,795.6475,795.5488,807.2266,791.5244z"/>
		<path fill="#98862E" d="M848.5615,702.4863l-4.584-3.9922l-19.7627,73.5479C831.502,768.3105,848.5615,702.4863,848.5615,702.4863
			z"/>
		<path fill="#98862E" d="M889.7188,768.6494l-4.588-4.001l-19.7579,73.5489C872.6602,834.4648,889.7188,768.6494,889.7188,768.6494
			z"/>
		<path fill="#98862E" d="M904.3799,904.502c7.291-3.7315,24.3506-69.5518,24.3506-69.5518l-4.584-3.9961L904.3799,904.502z"/>
		<path fill="#98862E" d="M845.0898,856.8271l-80.3974-9.5947C796.0459,864.4854,845.0898,856.8271,845.0898,856.8271z"/>
		<path fill="#98862E" d="M889.9795,930.2695l-80.3975-9.5918C840.9316,937.9268,889.9795,930.2695,889.9795,930.2695z"/>
	</g>
	<g>
		<path fill="#34B4C9" d="M842.833,31.8701c2.7578,5.4404,8.3954,9.1787,14.9092,9.1787c9.2402,0,16.7285-7.4883,16.7285-16.726
			c0-9.2359-7.4883-16.7242-16.7285-16.7242c-3.6211,0-6.9629,1.1641-9.7051,3.1211C847.2168,8.2339,845.9619,4.541,844.3164,0
			h-36.2529c12.747,7.4883,25.664,12.6646,36.581,13.9429c-2.2656,2.852-3.6259,6.4546-3.6259,10.3799
			c0,1.6767,0.252,3.2905,0.7138,4.8193c-18.3535-5.3442-129.2803-35.5767-133.5096,13.146
			C703.6973,94.4507,814.4502,67.6387,842.833,31.8701z"/>
		<path fill="#34B4C9" d="M868.7656,0h-8.8457c1.3262,2.5171,2.75,4.8213,4.2969,6.8452C864.2168,6.8452,865.9688,4.3281,868.7656,0
			z"/>
		<path fill="#34B4C9" d="M887.332,0c-3.0615,4.9946-5.3379,9.9067-6.6084,14.5542c0,0,48.1446-2.1343,84.6387-14.5542H887.332z"/>
		<path fill="#34B4C9" d="M881.0078,30.2427c0,0,92.3721,102.0473,123.3975,58.6885
			C1035.4434,45.5723,921.9014,11.7729,881.0078,30.2427z"/>
		<path fill="#34B4C9" d="M872.6719,37.0366c0,0-23.8301,135.563,29.4433,133.4365
			C955.3926,168.3408,912.3574,57.9727,872.6719,37.0366z"/>
		<path fill="#34B4C9" d="M857.2061,43.7695c0,0-114.9034,75.7813-76.7686,113.045C818.5732,194.0781,869.2432,87,857.2061,43.7695z
			"/>
		<path fill="#34B4C9" d="M786.9756,10.4512c3.1162,1.8818,7.1601,0.8759,9.0381-2.2373c1.6416-2.71,1.0859-6.1348-1.1436-8.2139
			h-8.9404c-0.4453,0.4102-0.8555,0.8682-1.1875,1.4126C782.8643,4.5254,783.8662,8.5732,786.9756,10.4512z"/>
		<path fill="#34B4C9" d="M993.2754,29.7061c3.5469,0.7851,7.0664-1.4556,7.8555-5.0044c0.7852-3.5469-1.4521-7.066-5.003-7.855
			c-3.5508-0.7891-7.0654,1.4477-7.8506,4.9985C987.4844,25.396,989.7246,28.9131,993.2754,29.7061z"/>
		<path fill="#34B4C9" d="M955.6221,20.7681c-0.7852,3.5507,1.4511,7.062,5.002,7.8491c3.5547,0.793,7.0703-1.4458,7.8594-4.9966
			c0.7891-3.5469-1.4561-7.0698-5.0029-7.8589C959.9336,14.9766,956.415,17.2173,955.6221,20.7681z"/>
		<path fill="#34B4C9" d="M934.3047,20.1445c0.7891-3.5547-1.4434-7.0698-5.002-7.8589c-3.5468-0.7812-7.0664,1.4517-7.8476,5.0025
			c-0.793,3.5469,1.4482,7.0703,4.9951,7.8555C930.0088,25.9326,933.5205,23.6875,934.3047,20.1445z"/>
		<path fill="#34B4C9" d="M847.6738,160.3198c-3.4121-1.2563-7.1924,0.4951-8.4511,3.9058c-1.25,3.4145,0.4941,7.1982,3.9102,8.4551
			c3.4092,1.2563,7.1924-0.4912,8.4473-3.9082C852.8389,165.3579,851.0869,161.5742,847.6738,160.3198z"/>
		<path fill="#34B4C9" d="M853.1104,128.1064c-3.4161-1.2568-7.1964,0.4932-8.4541,3.9078
			c-1.251,3.4145,0.4931,7.2002,3.9052,8.4526c3.417,1.2568,7.2002-0.4951,8.4551-3.9038
			C858.2715,133.1465,856.5234,129.3628,853.1104,128.1064z"/>
		<path fill="#34B4C9" d="M861.124,94.707c-3.4131-1.2544-7.1964,0.4932-8.4551,3.9063c-1.2548,3.4145,0.4971,7.1963,3.9053,8.4526
			c3.4131,1.2525,7.1964-0.4951,8.4551-3.9077C866.2803,99.7476,864.5322,95.958,861.124,94.707z"/>
		<path fill="#34B4C9" d="M749.9531,110.7764c3.4356-1.1953,5.251-4.9512,4.0469-8.3877c-1.1953-3.4302-4.9512-5.2432-8.3789-4.0479
			c-3.4326,1.2031-5.252,4.9575-4.0566,8.3877C742.7646,110.1611,746.5166,111.9736,749.9531,110.7764z"/>
		<path fill="#34B4C9" d="M778.2881,94.522c3.4326-1.2017,5.2471-4.9517,4.0517-8.3858c-1.2031-3.4384-4.955-5.2495-8.3877-4.0483
			c-3.4326,1.1997-5.247,4.9536-4.0556,8.3882C771.0996,93.9062,774.8516,95.7173,778.2881,94.522z"/>
		<path fill="#34B4C9" d="M809.1758,79.4961c3.4365-1.1953,5.2471-4.9531,4.0517-8.3838c-1.1992-3.4365-4.955-5.249-8.3877-4.0498
			c-3.4365,1.1992-5.247,4.9473-4.0478,8.3857C801.9912,78.8828,805.7393,80.6895,809.1758,79.4961z"/>
		<path fill="#34B4C9" d="M664.9434,530.5693c2.7578,5.4405,8.3917,9.1807,14.913,9.1807c9.2354,0,16.7198-7.4883,16.7198-16.7275
			c0-9.2325-7.4844-16.7207-16.7198-16.7207c-3.6259,0-6.9677,1.164-9.706,3.1211
			c-6.8486-20.7505-43.8477-125.4747-85.7783-101.9136c-44.961,25.2778,36.4072,99.7632,82.3857,105.1372
			c-2.2646,2.8515-3.6299,6.4541-3.6299,10.376c0,1.6806,0.2569,3.29,0.7139,4.8212
			c-18.3496-5.3427-129.2793-35.581-133.5088,13.1456C525.8076,593.1504,636.5645,566.3379,664.9434,530.5693z"/>
		<path fill="#34B4C9" d="M715.6484,372.0845c-49.2421-20.4468-56.541,97.7905-29.3183,133.4599
			C686.3301,505.5444,764.8896,392.5273,715.6484,372.0845z"/>
		<path fill="#34B4C9" d="M826.7285,455.6143c-13.6152-51.5533-112.0469,14.3652-123.8945,57.6474
			C702.834,513.2617,840.3438,507.166,826.7285,455.6143z"/>
		<path fill="#34B4C9" d="M703.1182,528.9443c0,0,92.3672,102.045,123.3974,58.6905
			C857.5527,544.2715,744.0068,510.4766,703.1182,528.9443z"/>
		<path fill="#34B4C9" d="M694.7813,535.7344c0,0-23.8301,135.5682,29.4443,133.4374
			C777.5029,667.042,734.4668,556.6758,694.7813,535.7344z"/>
		<path fill="#34B4C9" d="M679.3154,542.4727c0,0-114.9033,75.7773-76.7675,113.0449
			C640.6875,692.7812,691.3525,585.7012,679.3154,542.4727z"/>
		<path fill="#34B4C9" d="M547.2148,483.5117c3.1094,1.8838,7.1563,0.8858,9.0352-2.2309c1.8779-3.1128,0.875-7.1568-2.2334-9.0347
			c-3.1133-1.8838-7.165-0.8838-9.0391,2.229C543.0957,477.5879,544.0938,481.6357,547.2148,483.5117z"/>
		<path fill="#34B4C9" d="M586.8496,492.7202c1.8779-3.1108,0.876-7.1567-2.2334-9.0366c-3.1162-1.8818-7.165-0.8799-9.042,2.231
			c-1.8828,3.1147-0.8847,7.1625,2.2324,9.0385C580.9199,496.8369,584.9717,495.835,586.8496,492.7202z"/>
		<path fill="#34B4C9" d="M618.1279,506.917c1.8781-3.1084,0.876-7.1563-2.2334-9.0381c-3.1161-1.8799-7.1601-0.8799-9.042,2.2329
			c-1.8779,3.1167-0.8759,7.1607,2.2325,9.0386C612.2021,511.0283,616.2461,510.0264,618.1279,506.917z"/>
		<path fill="#34B4C9" d="M645.4844,400.8062c3.6299-0.2408,6.372-3.3853,6.1308-7.0127c-0.248-3.6255-3.3886-6.3697-7.0185-6.125
			c-3.626,0.2465-6.3711,3.3852-6.1231,7.0166C638.7227,398.311,641.8594,401.0547,645.4844,400.8062z"/>
		<path fill="#34B4C9" d="M646.6523,426.3086c0.2452,3.6279,3.3848,6.374,7.0147,6.1269c3.6221-0.246,6.3682-3.3886,6.123-7.0146
			c-0.2441-3.6255-3.3847-6.3716-7.0146-6.127C649.1455,419.5405,646.4082,422.6851,646.6523,426.3086z"/>
		<path fill="#34B4C9" d="M652.9609,460.0747c0.2491,3.6274,3.3848,6.3716,7.0147,6.1211c3.6299-0.2427,6.3721-3.3853,6.123-7.0107
			c-0.2441-3.6255-3.3847-6.3697-7.0146-6.127C655.458,453.3047,652.7168,456.4434,652.9609,460.0747z"/>
		<path fill="#34B4C9" d="M762.0645,412.9814c-2.9034,2.1934-3.4756,6.3262-1.2823,9.2222c2.1944,2.898,6.3203,3.4722,9.2246,1.2842
			c2.9034-2.1978,3.4717-6.3262,1.2784-9.23C769.0957,411.3599,764.9648,410.7861,762.0645,412.9814z"/>
		<path fill="#34B4C9" d="M738.8027,446.3706c2.1983,2.898,6.3243,3.4741,9.2207,1.2803c2.9034-2.1934,3.4756-6.3203,1.2823-9.2241
			c-2.1895-2.9019-6.3203-3.4737-9.2245-1.2803C737.1816,439.3462,736.6133,443.4707,738.8027,446.3706z"/>
		<path fill="#34B4C9" d="M723.2354,471.4272c2.9033-2.1933,3.4755-6.3242,1.2822-9.226c-2.1944-2.8975-6.3242-3.4717-9.2245-1.2783
			c-2.9034,2.1938-3.4756,6.3203-1.2784,9.2221C716.208,473.0469,720.335,473.6211,723.2354,471.4272z"/>
		<path fill="#34B4C9" d="M810.3867,520.5488c-0.789,3.5469,1.4484,7.0655,4.9951,7.8545c3.5508,0.7891,7.0694-1.456,7.8584-5.0019
			c0.7891-3.5508-1.4511-7.0625-5.0019-7.8516C814.6914,514.7568,811.1719,516.9941,810.3867,520.5488z"/>
		<path fill="#34B4C9" d="M777.7314,519.4678c-0.7851,3.5547,1.4522,7.0654,5.0069,7.8545c3.5508,0.789,7.0664-1.4512,7.8555-5.002
			c0.7851-3.5469-1.4561-7.0664-5.0031-7.8594C782.04,513.6797,778.5205,515.9209,777.7314,519.4678z"/>
		<path fill="#34B4C9" d="M743.5654,515.9912c-0.789,3.5508,1.4473,7.0664,4.9942,7.8516c3.5547,0.789,7.0742-1.4522,7.8554-4.9991
			c0.793-3.5507-1.4443-7.0654-5.0029-7.8544C747.8652,510.2041,744.3467,512.4404,743.5654,515.9912z"/>
		<path fill="#34B4C9" d="M669.7842,659.0176c-3.4092-1.2549-7.1963,0.497-8.4512,3.9131c-1.2549,3.413,0.4932,7.1963,3.9063,8.451
			c3.412,1.2549,7.1962-0.4892,8.4502-3.9101C674.9482,664.0596,673.1963,660.2793,669.7842,659.0176z"/>
		<path fill="#34B4C9" d="M679.126,635.2666c1.2549-3.417-0.4932-7.2041-3.9014-8.459c-3.4209-1.2549-7.2002,0.4932-8.4551,3.9063
			c-1.2549,3.416,0.4893,7.2041,3.9024,8.4579C674.0879,640.4268,677.8682,638.6748,679.126,635.2666z"/>
		<path fill="#34B4C9" d="M683.2334,593.4062c-3.4131-1.2539-7.2002,0.4932-8.4551,3.9063
			c-1.2538,3.417,0.4971,7.1963,3.9063,8.4551c3.4131,1.25,7.2002-0.4932,8.455-3.9102
			C688.3936,598.4482,686.6426,594.6611,683.2334,593.4062z"/>
		<path fill="#34B4C9" d="M567.7305,597.0439c-3.4326,1.1993-5.2471,4.9551-4.0557,8.3877
			c1.1992,3.4327,4.9551,5.2471,8.3877,4.0479c3.4365-1.1992,5.2471-4.9551,4.0518-8.3877
			C574.915,597.6592,571.1631,595.8447,567.7305,597.0439z"/>
		<path fill="#34B4C9" d="M600.3975,593.2207c3.4326-1.1953,5.247-4.9512,4.0479-8.3838c-1.1953-3.4394-4.9512-5.2471-8.3839-4.0478
			c-3.4326,1.1953-5.2469,4.956-4.0517,8.3877C593.209,592.6055,596.9609,594.417,600.3975,593.2207z"/>
		<path fill="#34B4C9" d="M631.2891,578.1934c3.4326-1.1914,5.2441-4.9473,4.0479-8.3799
			c-1.1992-3.4326-4.9551-5.2471-8.3877-4.0479c-3.4316,1.1992-5.2471,4.9473-4.0479,8.3838
			C624.1016,577.582,627.8535,579.3926,631.2891,578.1934z"/>
		<path fill="#34B4C9" d="M605.6445,979.0928c2.7618,5.4443,8.3965,9.1845,14.9141,9.1845c9.2353,0,16.7236-7.4882,16.7236-16.7285
			c0-9.2314-7.4883-16.7197-16.7236-16.7197c-3.6221,0-6.9678,1.167-9.7061,3.124c-6.8486-20.752-43.8476-125.4843-85.7744-101.915
			c-44.9673,25.2734,36.4073,99.7607,82.382,105.1348c-2.2647,2.8525-3.626,6.4541-3.626,10.3759
			c0,1.6807,0.2568,3.295,0.7139,4.8213c-18.3458-5.3418-129.2837-35.5791-133.5132,13.1455
			c-0.793,9.1143,1.9394,15.8213,7.1352,20.4844h76.9239C576.335,1002.666,595.8721,991.4141,605.6445,979.0928z"/>
		<path fill="#34B4C9" d="M656.3535,820.6094c-49.2451-20.4444-56.5439,97.7921-29.3252,133.4619
			C627.0283,954.0713,705.5957,841.0537,656.3535,820.6094z"/>
		<path fill="#34B4C9" d="M767.4307,904.1396c-13.6153-51.5498-112.043,14.3682-123.8954,57.6485
			C643.5352,961.7881,781.0459,955.6963,767.4307,904.1396z"/>
		<path fill="#34B4C9" d="M643.8193,977.4707c0,0,14.4287,15.9316,33.7842,32.5293h91.7598
			C752.8721,980.7061,675.9424,962.9639,643.8193,977.4707z"/>
		<path fill="#34B4C9" d="M635.4834,984.2607c0,0-1.8545,10.5655-3.373,25.7393h29.7197
			C653.6514,998.3652,644.4824,989.0107,635.4834,984.2607z"/>
		<path fill="#34B4C9" d="M594.1719,1010h27.5586c0.3271-7.0703-0.1895-13.5439-1.709-19.001
			C620.0215,990.999,608.6074,998.5273,594.1719,1010z"/>
		<path fill="#34B4C9" d="M485.6777,923.0059c-1.8818,3.1093-0.8818,7.1572,2.2373,9.0351
			c3.1109,1.8819,7.1568,0.8838,9.0347-2.2334c1.8799-3.1094,0.8799-7.1572-2.2329-9.0351
			C491.6035,918.8867,487.5537,919.8887,485.6777,923.0059z"/>
		<path fill="#34B4C9" d="M527.5518,941.249c1.8779-3.1094,0.8798-7.1572-2.2334-9.039c-3.1172-1.8819-7.1651-0.8799-9.043,2.2295
			c-1.8818,3.1171-0.8799,7.165,2.2373,9.0429C521.625,945.3643,525.6738,944.3613,527.5518,941.249z"/>
		<path fill="#34B4C9" d="M558.8301,955.4443c1.8779-3.1093,0.876-7.1572-2.2334-9.039c-3.1162-1.8819-7.1612-0.8799-9.043,2.2334
			c-1.8779,3.1172-0.876,7.1602,2.2373,9.039C552.9043,959.5557,556.9482,958.5527,558.8301,955.4443z"/>
		<path fill="#34B4C9" d="M585.2988,836.1934c-3.6299,0.248-6.3672,3.3847-6.123,7.0185c0.248,3.626,3.3847,6.3721,7.0146,6.1192
			c3.6299-0.2364,6.3721-3.3848,6.127-7.0069C592.0693,838.6943,588.9287,835.9482,585.2988,836.1934z"/>
		<path fill="#34B4C9" d="M594.3691,880.9648c3.626-0.249,6.3682-3.3935,6.127-7.0146c-0.2481-3.6299-3.3887-6.3721-7.0186-6.1318
			c-3.6298,0.249-6.3681,3.3935-6.123,7.0156C587.5986,878.4629,590.7393,881.209,594.3691,880.9648z"/>
		<path fill="#34B4C9" d="M600.6816,914.7246c3.6299-0.2441,6.3682-3.3887,6.1231-7.0107
			c-0.2481-3.6299-3.3848-6.3721-7.0186-6.1309c-3.6259,0.2481-6.368,3.3848-6.1191,7.0225
			C593.9111,912.2275,597.0518,914.9736,600.6816,914.7246z"/>
		<path fill="#34B4C9" d="M710.7129,872.0166c2.8994-2.2012,3.4717-6.3281,1.2734-9.2324
			c-2.1894-2.8955-6.3203-3.4717-9.2197-1.2783c-2.9033,2.1943-3.4717,6.3291-1.2822,9.2246
			C703.6777,873.626,707.8086,874.2021,710.7129,872.0166z"/>
		<path fill="#34B4C9" d="M688.7295,896.1777c2.9033-2.1933,3.4756-6.3203,1.2822-9.2245
			c-2.1934-2.9033-6.3242-3.4717-9.2246-1.2773c-2.9033,2.1972-3.4717,6.3203-1.2861,9.2236
			C681.6992,897.7949,685.8291,898.3711,688.7295,896.1777z"/>
		<path fill="#34B4C9" d="M655.9951,909.4502c-2.8994,2.1934-3.4717,6.3203-1.2783,9.2236
			c2.1934,2.9004,6.3203,3.4717,9.2236,1.2783c2.9004-2.1933,3.4727-6.3203,1.2784-9.2236
			C663.0293,907.832,658.8984,907.2559,655.9951,909.4502z"/>
		<path fill="#34B4C9" d="M751.0889,969.0752c-0.7891,3.5469,1.4482,7.0664,4.999,7.8555c3.5469,0.789,7.0654-1.4561,7.8545-5.0031
			c0.789-3.5468-1.4512-7.0625-5.002-7.8515C755.3896,963.2832,751.8779,965.5205,751.0889,969.0752z"/>
		<path fill="#34B4C9" d="M718.4336,967.9941c-0.7852,3.5547,1.4521,7.0664,5.0029,7.8555
			c3.5547,0.7891,7.0694-1.4521,7.8584-5.0029c0.7891-3.5469-1.451-7.0625-5.0018-7.8594
			C722.7461,962.2061,719.2266,964.4473,718.4336,967.9941z"/>
		<path fill="#34B4C9" d="M684.2676,964.5186c-0.7891,3.5507,1.4472,7.0654,4.998,7.8505c3.5547,0.7891,7.0703-1.451,7.8555-4.998
			c0.7891-3.5508-1.4482-7.0664-5.0068-7.8555C688.5713,958.7305,685.0527,960.9678,684.2676,964.5186z"/>
		<path fill="#34B4C9" d="M452.0874,0h-61.5605c18.663,35.5117,51.2319,84.7612,80.3916,64.8252
			C494.1919,48.916,478.5801,21.6636,452.0874,0z"/>
		<path fill="#34B4C9" d="M350.0952,0c-16.8623,36.3818-37.8315,95.2676-3.2231,106.356
			C387.3013,119.3042,393.8999,46.8584,379.7148,0H350.0952z"/>
		<path fill="#34B4C9" d="M338.5786,0h-67.0068c-25.0611,13.4258-44.2466,31.105-34.3223,51.8076
			C255.9819,90.8862,315.1792,43.2329,338.5786,0z"/>
		<path fill="#34B4C9" d="M480.7661,5.3696c3.0635,1.9527,7.1367,1.0533,9.0957-2.0044c0.6665-1.0454,0.9766-2.209,1.0083-3.3652
			H477.73C477.7891,2.1069,478.8545,4.1504,480.7661,5.3696z"/>
		<path fill="#34B4C9" d="M299.98,87.4302c2.355-2.7779,2.0039-6.9322-0.7696-9.2813c-2.7753-2.3476-6.9277-1.9985-9.2792,0.7769
			c-2.3497,2.7778-2.0044,6.9282,0.7734,9.2817C293.48,90.5527,297.6323,90.2114,299.98,87.4302z"/>
		<path fill="#34B4C9" d="M316.1318,59.0376c2.3457-2.7754,2.0044-6.936-0.7729-9.2793c-2.7798-2.3516-6.9263-2.0083-9.2798,0.7715
			c-2.3491,2.7734-2.0039,6.9297,0.7695,9.2773C309.626,62.1621,313.7808,61.8071,316.1318,59.0376z"/>
		<path fill="#34B4C9" d="M325.0562,21.8965c-2.3511,2.7734-2.004,6.9297,0.7714,9.2793c2.7754,2.3515,6.9317,2.0063,9.2813-0.7735
			c2.3476-2.7734,2.0044-6.9316-0.7715-9.2793C331.562,18.7798,327.4077,19.123,325.0562,21.8965z"/>
		<path fill="#34B4C9" d="M160.1582,551.8545c2.7598,5.4443,8.3916,9.1807,14.9131,9.1807c9.2358,0,16.7241-7.4883,16.7241-16.7237
			c0-9.2363-7.4883-16.7246-16.7241-16.7246c-3.624,0-6.9692,1.1641-9.7075,3.1211
			c-6.8492-20.7568-43.8482-125.477-85.7749-101.9097c-44.961,25.2759,36.4033,99.7554,82.3798,105.1363
			c-2.2626,2.8486-3.6235,6.451-3.6235,10.3769c0,1.6729,0.2544,3.2901,0.7119,4.8164
			c-18.3515-5.3457-129.2778-35.5742-133.5092,13.1426C21.0225,614.4434,131.7754,587.623,160.1582,551.8545z"/>
		<path fill="#34B4C9" d="M210.8672,393.3711c-49.2476-20.4482-56.5464,97.7886-29.3237,133.4619
			C181.5435,526.833,260.1064,413.814,210.8672,393.3711z"/>
		<path fill="#34B4C9" d="M321.9434,476.9014c-13.6153-51.5552-112.0469,14.3632-123.8946,57.6416
			C198.0488,534.543,335.5586,528.4512,321.9434,476.9014z"/>
		<path fill="#34B4C9" d="M198.335,550.2295c0,0,92.3696,102.0488,123.3974,58.6904
			C352.7681,565.5605,239.2261,531.7607,198.335,550.2295z"/>
		<path fill="#34B4C9" d="M189.9941,557.0225c0,0-23.8276,135.5654,29.4483,133.4384
			C272.7178,688.3271,229.6821,577.9648,189.9941,557.0225z"/>
		<path fill="#34B4C9" d="M174.5347,563.7617c0,0-114.9073,75.7735-76.772,113.041
			C135.9023,714.0664,186.5679,606.9863,174.5347,563.7617z"/>
		<path fill="#34B4C9" d="M42.4258,504.8027c3.1128,1.878,7.1567,0.8799,9.0371-2.2329c1.8818-3.1128,0.8813-7.1606-2.2315-9.041
			c-3.1127-1.8799-7.1626-0.8774-9.0405,2.2315C38.311,498.873,39.3091,502.9209,42.4258,504.8027z"/>
		<path fill="#34B4C9" d="M82.0625,514.0068c1.8799-3.1123,0.8779-7.1601-2.2329-9.0385c-3.1148-1.878-7.1626-0.8794-9.043,2.2329
			c-1.8799,3.1133-0.8774,7.165,2.2354,9.039C76.1367,518.1221,80.1865,517.1201,82.0625,514.0068z"/>
		<path fill="#34B4C9" d="M113.3408,528.2021c1.8799-3.1123,0.8799-7.1601-2.2329-9.038c-3.1147-1.878-7.1587-0.876-9.0386,2.2324
			c-1.8798,3.1172-0.8798,7.165,2.2329,9.043C107.417,532.3174,111.4609,531.3154,113.3408,528.2021z"/>
		<circle fill="#34B4C9" cx="140.2578" cy="415.5242" r="6.5842"/>
		<path fill="#34B4C9" d="M141.8677,447.5957c0.2466,3.6299,3.3847,6.3696,7.0127,6.123c3.6274-0.2465,6.3696-3.3847,6.1289-7.0146
			c-0.2486-3.626-3.3911-6.3657-7.0186-6.123C144.3628,440.8257,141.6191,443.9697,141.8677,447.5957z"/>
		<path fill="#34B4C9" d="M148.1782,481.3599c0.2466,3.6294,3.3848,6.3715,7.0127,6.125c3.6294-0.2466,6.3696-3.3872,6.1231-7.0152
			c-0.2447-3.6274-3.3853-6.3672-7.0166-6.125C150.6733,474.5898,147.9316,477.73,148.1782,481.3599z"/>
		<path fill="#34B4C9" d="M265.2256,444.7729c2.8999-2.1997,3.4697-6.3266,1.2764-9.2241c-2.1939-2.9038-6.3223-3.476-9.2203-1.2802
			c-2.9058,2.1933-3.4741,6.3242-1.2842,9.2221C258.1909,446.3887,262.3179,446.9624,265.2256,444.7729z"/>
		<path fill="#34B4C9" d="M243.2383,468.938c2.9077-2.1939,3.48-6.3247,1.2842-9.2241c-2.1914-2.9019-6.3223-3.4761-9.2222-1.2823
			c-2.9019,2.1973-3.4717,6.3262-1.2842,9.2242C236.2139,470.5576,240.3428,471.1274,243.2383,468.938z"/>
		<path fill="#34B4C9" d="M218.4541,492.7144c2.8994-2.1939,3.4697-6.3243,1.2783-9.2242
			c-2.1899-2.9018-6.3227-3.4756-9.2226-1.2802c-2.9014,2.1933-3.4737,6.3222-1.2798,9.2202
			C211.4233,494.334,215.5522,494.9077,218.4541,492.7144z"/>
		<path fill="#34B4C9" d="M305.6001,541.833c-0.7891,3.5508,1.4517,7.0703,5.0005,7.8594c3.5469,0.7851,7.0659-1.46,7.855-5.0029
			c0.789-3.5508-1.4517-7.0694-5.0025-7.8545C309.9043,536.042,306.3872,538.2822,305.6001,541.833z"/>
		<path fill="#34B4C9" d="M272.9468,540.752c-0.7852,3.5507,1.4536,7.0664,5.0044,7.8554c3.5508,0.7891,7.0678-1.4482,7.8569-4.999
			c0.7871-3.5508-1.4556-7.0693-5.0024-7.8584C277.2549,534.9648,273.7358,537.2012,272.9468,540.752z"/>
		<path fill="#34B4C9" d="M238.7803,537.2764c-0.791,3.5468,1.4477,7.0664,4.9985,7.8553c3.5547,0.7891,7.0698-1.4521,7.853-5.0029
			c0.7891-3.5508-1.4458-7.0615-5.0024-7.8506C243.0825,531.4893,239.5635,533.7256,238.7803,537.2764z"/>
		<path fill="#34B4C9" d="M165.001,680.3057c-3.4131-1.2539-7.1963,0.4969-8.4531,3.9062c-1.2525,3.417,0.4951,7.1963,3.9101,8.459
			c3.4107,1.2539,7.1943-0.4971,8.4487-3.9141C170.1631,685.3437,168.4116,681.5605,165.001,680.3057z"/>
		<path fill="#34B4C9" d="M170.4375,648.0967c-3.4165-1.2549-7.1982,0.4892-8.4551,3.9053
			c-1.2524,3.413,0.4956,7.1962,3.9043,8.4511c3.4165,1.2627,7.2002-0.497,8.4546-3.9062
			C175.5962,653.1348,173.8501,649.3516,170.4375,648.0967z"/>
		<path fill="#34B4C9" d="M178.4482,614.6953c-3.4106-1.2549-7.1962,0.4893-8.4545,3.9063
			c-1.2544,3.4121,0.497,7.1963,3.9038,8.4502c3.4145,1.2548,7.2002-0.4932,8.457-3.9053
			C183.6089,619.7373,181.8574,615.9502,178.4482,614.6953z"/>
		<path fill="#34B4C9" d="M62.9453,618.3291c-3.4341,1.2031-5.2471,4.9551-4.0537,8.3877c1.1973,3.4365,4.9536,5.2432,8.3896,4.0439
			c3.4366-1.1914,5.2476-4.9472,4.0459-8.3798C70.1299,618.9482,66.3779,617.1338,62.9453,618.3291z"/>
		<path fill="#34B4C9" d="M95.6128,614.5059c3.4341-1.1993,5.2471-4.9473,4.0518-8.3838c-1.2017-3.4366-4.9537-5.2471-8.3877-4.0479
			c-3.4327,1.1992-5.2476,4.9512-4.0538,8.3838C88.4243,613.8906,92.1763,615.7051,95.6128,614.5059z"/>
		<path fill="#34B4C9" d="M122.1646,587.0469c-3.4341,1.2031-5.2452,4.9551-4.0479,8.3878
			c1.1992,3.4326,4.9492,5.2469,8.3857,4.0478c3.4327-1.1914,5.2476-4.9472,4.0518-8.3799
			C129.353,587.6621,125.5972,585.8555,122.1646,587.0469z"/>
		<path fill="#34B4C9" d="M968.9961,912.2666c-32.9395,18.5234,1.9258,63.4404,41.0039,88.2607v-75.0908
			C997.6475,911.4463,983.6211,904.0488,968.9961,912.2666z"/>
		<path fill="#34B4C9" d="M938.6406,977.001c-3.1162-1.878-7.164-0.875-9.042,2.2334c-1.8779,3.1094-0.8798,7.1611,2.2373,9.0429
			c3.1123,1.878,7.1563,0.8799,9.0342-2.2373C942.752,982.9277,941.75,978.8789,938.6406,977.001z"/>
		<circle fill="#34B4C9" cx="965.8344" cy="994.0786" r="6.5838"/>
		<path fill="#34B4C9" d="M1000.5156,1002.6377c-3.1133-1.8779-7.1572-0.8799-9.039,2.2334
			c-0.9668,1.6055-1.1602,3.456-0.7061,5.1289h12.6641C1004.1924,1007.2344,1003.0957,1004.1963,1000.5156,1002.6377z"/>
	</g>
	<g>
		<path fill="#CAB23D" d="M376.0059,265.5195c0,0-124.648-11.2085-118.6353,36.8946
			C263.3794,350.5176,360.0747,303.0791,376.0059,265.5195z"/>
		<path fill="#CAB23D" d="M376.4814,250.8252c-0.4614,1.4541-0.7138,2.9985-0.7138,4.6045c0,8.3994,6.8037,15.2051,15.2051,15.2051
			c8.3974,0,15.2031-6.8057,15.2031-15.2051c0-8.398-6.8057-15.2036-15.2031-15.2036c-0.4283,0-0.8501,0.0298-1.2706,0.063
			c4.4209-10.8711,45.4659-114.958,0.2901-123.3028c-47.2334-8.7251-31.9512,95.7193-1.5288,123.4629
			c-5.3003,0.8819-9.666,4.4917-11.605,9.3462c-5.8296-10.1909-62.3896-106.7246-96.8379-76.3296
			C243.9268,205.3062,336.0103,257.9111,376.4814,250.8252z"/>
		<path fill="#CAB23D" d="M405.4639,244.9409c0,0,121.0976-31.5805,99.1792-74.8227
			C482.7266,126.8735,407.7617,204.2075,405.4639,244.9409z"/>
		<path fill="#CAB23D" d="M408.7007,258.832c0,0,101.5386,73.1543,120.8784,28.7002
			C548.9189,243.0786,441.5435,234.6299,408.7007,258.832z"/>
		<path fill="#CAB23D" d="M402.5776,266.4585c0,0,4.6104,125.0625,51.5733,113.0332
			C501.1099,367.4585,441.8452,277.5215,402.5776,266.4585z"/>
		<path fill="#CAB23D" d="M349.3218,392.4185c43.4912,21.4213,57.0039-85.4356,34.3833-119.3892c0,0-13.978,17.5903-26.7827,39.4907
			c0.3374-1.4678,0.1303-3.0635-0.7139-4.4521c-1.7144-2.8247-5.397-3.7246-8.2261-2.0083c-2.8227,1.7221-3.7202,5.4033-2,8.228
			c1.7158,2.8247,5.3989,3.7241,8.2217,2.0024c0.353-0.2133,0.6748-0.4599,0.9648-0.728
			C338.5234,344.8281,325.1055,380.4917,349.3218,392.4185z"/>
		<circle fill="#CAB23D" cx="263.3918" cy="242.4504" r="5.9863"/>
		<path fill="#CAB23D" d="M287.1123,244.8481c-1.0771,3.1226,0.582,6.5313,3.7065,7.6104c3.1265,1.0791,6.5337-0.5796,7.6143-3.7065
			c1.0772-3.1246-0.5835-6.5333-3.7046-7.6124C291.6001,240.0605,288.1914,241.7236,287.1123,244.8481z"/>
		<path fill="#CAB23D" d="M317.623,251.5137c-1.0805,3.1269,0.5801,6.5332,3.709,7.6123c3.1245,1.081,6.5313-0.5801,7.6104-3.7046
			c1.0791-3.1265-0.5801-6.5332-3.7066-7.6084C322.1094,246.7319,318.7021,248.3892,317.623,251.5137z"/>
		<path fill="#CAB23D" d="M333.0811,155.8716c3.1757-0.9077,5.0185-4.2217,4.1088-7.3975
			c-0.9091-3.1821-4.2231-5.0205-7.4033-4.1113c-3.1777,0.9097-5.0185,4.2217-4.1108,7.4018
			C326.585,154.9443,329.897,156.7827,333.0811,155.8716z"/>
		<path fill="#CAB23D" d="M346.3667,182.4395c3.1802-0.9078,5.0205-4.2217,4.1113-7.4039c-0.9096-3.1757-4.2256-5.018-7.4033-4.1108
			c-3.1802,0.9072-5.0185,4.2236-4.1113,7.4033C339.875,181.5078,343.187,183.3467,346.3667,182.4395z"/>
		<circle fill="#CAB23D" cx="356.7549" cy="205.5015" r="5.9868"/>
		<path fill="#CAB23D" d="M448.1025,152.3442c2.1582-2.5034,1.8838-6.2827-0.6171-8.4467
			c-2.5035-2.1602-6.2813-1.8838-8.4454,0.6191c-2.1616,2.5015-1.8857,6.2813,0.6197,8.4434
			C442.1572,155.1201,445.9385,154.8457,448.1025,152.3442z"/>
		<circle fill="#CAB23D" cx="428.6277" cy="174.0989" r="5.9865"/>
		<path fill="#CAB23D" d="M406.5781,196.0405c-2.1582,2.5015-1.8818,6.2852,0.6197,8.4449
			c2.4995,2.1582,6.2846,1.8842,8.4448-0.6133c2.1621-2.5054,1.8818-6.291-0.6172-8.4488
			C412.52,193.2651,408.7402,193.5371,406.5781,196.0405z"/>
		<path fill="#CAB23D" d="M502.4692,230.9565c-0.0239,3.3081,2.6314,6.0069,5.94,6.0347c3.3096,0.0234,6.0127-2.6377,6.0361-5.9419
			c0.0235-3.3042-2.6357-6.0068-5.9414-6.0322C505.1953,224.9932,502.4946,227.6523,502.4692,230.9565z"/>
		<path fill="#CAB23D" d="M473.2344,236.208c-0.024,3.3081,2.6333,6.0088,5.9414,6.0342c3.3061,0.0234,6.0088-2.6377,6.0327-5.9414
			c0.0273-3.3067-2.6357-6.0049-5.9419-6.0347C475.9604,230.2446,473.2617,232.9038,473.2344,236.208z"/>
		<path fill="#CAB23D" d="M442.1924,239.6206c-0.0235,3.3062,2.6338,6.0068,5.9399,6.0322c3.3081,0.024,6.0069-2.6352,6.0323-5.9394
			c0.0239-3.3101-2.6333-6.0088-5.9395-6.0327C444.9189,233.6553,442.2144,236.3164,442.1924,239.6206z"/>
		<path fill="#CAB23D" d="M403.8164,380.8252c-3.2783-0.4678-6.3066,1.8071-6.7759,5.0815
			c-0.4677,3.2749,1.813,6.3047,5.0835,6.7701c3.2744,0.4677,6.3047-1.8028,6.772-5.0811
			C409.3638,384.3208,407.0874,381.291,403.8164,380.8252z"/>
		<path fill="#CAB23D" d="M400.8262,363.0103c3.2744,0.4633,6.3047-1.8111,6.7719-5.0855c0.4654-3.2725-1.8129-6.3066-5.0795-6.7725
			c-3.2764-0.4653-6.3047,1.8072-6.772,5.0782C395.2788,359.5088,397.5532,362.5386,400.8262,363.0103z"/>
		<path fill="#CAB23D" d="M403.2842,319.9336c-3.2749-0.4697-6.3047,1.8027-6.7725,5.0791
			c-0.4653,3.2749,1.8091,6.3027,5.0796,6.7705c3.2749,0.4673,6.3086-1.8071,6.772-5.0796
			C408.8311,323.4287,406.5586,320.397,403.2842,319.9336z"/>
		<path fill="#CAB23D" d="M309.5059,347.144c-1.7163-2.8208-5.3995-3.7182-8.2261-2.0044
			c-2.8228,1.7208-3.7202,5.4053-2.0044,8.2261c1.7202,2.8267,5.4033,3.7266,8.23,2.0044
			C310.3325,353.6558,311.2261,349.9687,309.5059,347.144z"/>
		<path fill="#CAB23D" d="M323.3794,325.2988c-2.8247,1.7183-3.7222,5.3994-2.0039,8.2222
			c1.7158,2.8247,5.4009,3.7222,8.2256,2.0044c2.8252-1.7202,3.7226-5.4014,2.0044-8.2261
			C329.8853,324.4766,326.2041,323.5786,323.3794,325.2988z"/>
		<path fill="#CAB23D" d="M959.8076,270.4868c2.8057,22.4331,25.333,24.082,50.1924,15.647v-51.293
			C982.166,238.6953,957.0303,248.2529,959.8076,270.4868z"/>
		<path fill="#CAB23D" d="M982.4619,141.5361c-20.0107,17.6553-0.6161,41.6944,27.5381,58.4043v-61.3198
			C1000.2197,134.2749,990.707,134.2588,982.4619,141.5361z"/>
		<path fill="#CAB23D" d="M963.8789,216.1797c3.125,1.083,6.5342-0.5801,7.6152-3.707c1.0762-3.1246-0.5839-6.5332-3.7089-7.6104
			c-3.1288-1.0791-6.5331,0.582-7.6143,3.7046C959.0938,211.6914,960.7549,215.1045,963.8789,216.1797z"/>
		<circle fill="#CAB23D" cx="995.2129" cy="214.8718" r="5.9848"/>
		<path fill="#CAB23D" d="M1003.7188,313.2104c-2.8204,1.7203-3.7198,5.4053-2.004,8.23c1.7198,2.8228,5.4053,3.7227,8.2295,2.002
			c0.0205-0.0117,0.0362-0.0293,0.0557-0.043v-10.124C1008.1416,312.1138,1005.7236,311.9971,1003.7188,313.2104z"/>
		<path fill="#CAB23D" d="M333.4321,872.167c0,0-124.644-11.2051-118.6352,36.9004
			C220.8091,957.1719,317.5049,909.7334,333.4321,872.167z"/>
		<path fill="#CAB23D" d="M333.9097,857.4746c-0.4619,1.4551-0.7144,3.002-0.7144,4.6074c0,8.3955,6.8057,15.2051,15.2031,15.2051
			c8.398,0,15.2037-6.8096,15.2037-15.2051c0-8.3954-6.8057-15.205-15.2037-15.205c-0.4277,0-0.8462,0.0273-1.2661,0.0634
			c4.4268-10.8896,45.458-114.959,0.2862-123.3027c-47.2276-8.7236-31.9512,95.7168-1.5308,123.46
			c-5.2969,0.8837-9.6621,4.498-11.6016,9.3505c-5.8252-10.1865-62.3872-106.7285-96.8374-76.3339
			C201.3569,811.9609,293.4404,864.5645,333.9097,857.4746z"/>
		<path fill="#CAB23D" d="M462.0732,776.7686c-21.9165-43.2442-96.8833,34.0878-99.1836,74.8271
			C362.8896,851.5957,483.9893,820.0098,462.0732,776.7686z"/>
		<path fill="#CAB23D" d="M366.127,865.4834c0,0,101.5385,73.1533,120.8803,28.7021
			C506.3477,849.7295,398.9717,841.2822,366.127,865.4834z"/>
		<path fill="#CAB23D" d="M360.0078,873.1094c0,0,4.6079,125.0625,51.5693,113.0332
			C458.5381,974.1094,399.2734,884.1758,360.0078,873.1094z"/>
		<path fill="#CAB23D" d="M314.3486,919.1709c0.3394-1.4678,0.1343-3.0615-0.7099-4.4502
			c-1.7144-2.8252-5.3994-3.7246-8.2261-2.0039c-2.8247,1.7158-3.7202,5.3965-2.0044,8.2217
			c1.7163,2.8252,5.3994,3.7246,8.2261,2.0039c0.3491-0.2129,0.6709-0.457,0.9604-0.7256
			c-16.643,29.2666-30.061,64.9238-5.8447,76.8545c43.4893,21.4189,57.0039-85.4356,34.3813-119.3887
			C341.1313,879.6826,327.1533,897.2705,314.3486,919.1709z"/>
		<path fill="#CAB23D" d="M218.8682,854.7598c3.1245,1.081,6.5332-0.584,7.6123-3.7051c1.0771-3.1279-0.584-6.5293-3.7066-7.6104
			c-3.1284-1.081-6.5351,0.5762-7.6142,3.7051C214.0825,850.2705,215.7397,853.6865,218.8682,854.7598z"/>
		<path fill="#CAB23D" d="M244.5405,851.4971c-1.0791,3.1289,0.5796,6.5371,3.7066,7.6104
			c3.1265,1.0811,6.5332-0.5761,7.6123-3.7002c1.0811-3.1289-0.5801-6.5342-3.7046-7.6152
			C249.0283,846.7109,245.6211,848.3721,244.5405,851.4971z"/>
		<circle fill="#CAB23D" cx="280.71" cy="860.1216" r="5.9861"/>
		<path fill="#CAB23D" d="M287.2148,751.0137c-3.1777,0.9072-5.0185,4.2217-4.1113,7.4014
			c0.9077,3.1807,4.2236,5.0186,7.4038,4.1113c3.1758-0.9072,5.02-4.2217,4.1109-7.4014
			C293.707,751.9453,290.3945,750.1064,287.2148,751.0137z"/>
		<path fill="#CAB23D" d="M300.5044,777.5781c-3.1836,0.9073-5.0181,4.2245-4.1108,7.3975
			c0.9072,3.1875,4.2216,5.0224,7.4013,4.1103c3.1778-0.9072,5.0186-4.2168,4.1114-7.4013
			C306.9966,778.5088,303.6807,776.666,300.5044,777.5781z"/>
		<path fill="#CAB23D" d="M315.8281,817.9063c3.1802-0.9073,5.0225-4.2208,4.1133-7.3975
			c-0.9077-3.1797-4.2236-5.0225-7.4038-4.1104c-3.1758,0.9073-5.022,4.2217-4.1108,7.4014
			C309.3379,816.9756,312.6484,818.8184,315.8281,817.9063z"/>
		<path fill="#CAB23D" d="M397.0859,759.6064c2.501,2.1621,6.2808,1.8896,8.4468-0.6152c2.1582-2.501,1.8799-6.2812-0.6196-8.4424
			c-2.5049-2.1582-6.2808-1.8867-8.4448,0.6191C394.3062,753.665,394.5825,757.4531,397.0859,759.6064z"/>
		<path fill="#CAB23D" d="M381.5254,776.8359c-2.1602,2.5049-1.8858,6.2852,0.6157,8.4434
			c2.5054,2.1621,6.2808,1.8857,8.4448-0.6201c2.1621-2.4971,1.8858-6.2803-0.6152-8.4424
			C387.4712,774.0547,383.6855,774.335,381.5254,776.8359z"/>
		<path fill="#CAB23D" d="M364.0083,802.6895c-2.1602,2.5058-1.8838,6.2851,0.6177,8.4433c2.499,2.1621,6.2827,1.8858,8.4448-0.6113
			c2.1621-2.5059,1.8818-6.2852-0.6196-8.4473C369.9502,799.916,366.1704,800.1885,364.0083,802.6895z"/>
		<path fill="#CAB23D" d="M465.835,843.6416c3.312,0.0244,6.0107-2.6348,6.038-5.9414c0.024-3.3057-2.6352-6.0049-5.9453-6.0283
			c-3.3061-0.0312-6.0048,2.6318-6.0283,5.9337C459.8716,840.9199,462.5288,843.6182,465.835,843.6416z"/>
		<path fill="#CAB23D" d="M430.6626,842.8604c-0.0239,3.3066,2.6333,6.0048,5.9414,6.0292
			c3.3081,0.0313,6.0088-2.6357,6.0322-5.9384c0.0259-3.3018-2.6333-6.0038-5.9433-6.0323
			C433.3887,836.8955,430.6899,839.5547,430.6626,842.8604z"/>
		<path fill="#CAB23D" d="M399.6226,846.2695c-0.0274,3.3067,2.6294,6.0089,5.9379,6.0363
			c3.3082,0.0234,6.0088-2.6358,6.0323-5.9414c0.0215-3.3067-2.6358-6.0088-5.9414-6.0323
			C402.3486,840.3047,399.6426,842.9629,399.6226,846.2695z"/>
		<path fill="#CAB23D" d="M361.2427,987.4766c-3.2744-0.4698-6.3047,1.8066-6.7739,5.081
			c-0.4659,3.2744,1.8125,6.3047,5.0854,6.7744c3.2705,0.4659,6.3047-1.8066,6.77-5.082
			C366.7939,990.9717,364.5151,987.9453,361.2427,987.4766z"/>
		<path fill="#CAB23D" d="M358.2559,969.6592c3.2729,0.4619,6.3046-1.8106,6.7705-5.086c0.4653-3.2744-1.8111-6.3037-5.0816-6.7695
			c-3.2749-0.4658-6.3047,1.8067-6.7705,5.0811C352.709,966.1602,354.9814,969.1895,358.2559,969.6592z"/>
		<path fill="#CAB23D" d="M353.9419,931.666c-0.4673,3.2705,1.8071,6.3008,5.0796,6.7695c3.2724,0.462,6.3047-1.8066,6.77-5.081
			c0.4678-3.2705-1.8047-6.3086-5.0796-6.7744C357.4395,926.1152,354.4053,928.3877,353.9419,931.666z"/>
		<path fill="#CAB23D" d="M258.708,951.791c-2.8228,1.7197-3.7207,5.4053-2.0044,8.2295c1.7202,2.8252,5.4033,3.7246,8.228,2.0049
			c2.8267-1.7207,3.7227-5.4053,2.0025-8.2305C265.2178,950.9707,261.5366,950.0781,258.708,951.791z"/>
		<path fill="#CAB23D" d="M280.8096,931.9502c-2.8267,1.7158-3.7246,5.4004-2.0083,8.2256c1.7182,2.8252,5.4033,3.7207,8.228,2.0039
			c2.8228-1.7197,3.7227-5.4043,2.0063-8.2295C287.3154,931.125,283.6323,930.2295,280.8096,931.9502z"/>
		<path fill="#CAB23D" d="M1008.2402,704.6562c0,0-108.6582,62.0958-76.2158,98.1202
			C964.4707,838.7969,1016.6563,744.5752,1008.2402,704.6562z"/>
		<path fill="#CAB23D" d="M901.0342,744.3857c-3.1797,0.8995-5.0264,4.2061-4.1231,7.3936
			c0.9043,3.1758,4.2139,5.0264,7.3975,4.1191c3.1768-0.8994,5.0225-4.2139,4.1191-7.3936
			C907.5283,745.3252,904.2188,743.4785,901.0342,744.3857z"/>
		<path fill="#CAB23D" d="M930.8926,742.666c3.1836-0.9043,5.0263-4.2139,4.1269-7.3935c-0.9033-3.1807-4.2138-5.0264-7.3935-4.127
			c-3.1797,0.9072-5.0264,4.2139-4.127,7.3936C924.4023,741.7187,927.7129,743.5654,930.8926,742.666z"/>
		<path fill="#CAB23D" d="M959.7363,730.6836c3.1807-0.9033,5.0264-4.21,4.1231-7.3975c-0.9033-3.1718-4.2129-5.0224-7.3936-4.1191
			c-3.1797,0.9033-5.0263,4.2139-4.1269,7.3935C953.2422,729.7412,956.5566,731.5869,959.7363,730.6836z"/>
		<path fill="#CAB23D" d="M901.8945,640.1309c2.5645,2.0869,6.336,1.7002,8.4229-0.8643s1.7012-6.3359-0.8594-8.4189
			c-2.5684-2.0909-6.3369-1.7041-8.4277,0.8603C898.9434,634.2725,899.3301,638.0439,901.8945,640.1309z"/>
		<path fill="#CAB23D" d="M936.4082,653.4541c2.0908-2.5645,1.7041-6.3281-0.8603-8.4189
			c-2.5645-2.0909-6.3361-1.7051-8.4229,0.8593c-2.0869,2.5645-1.7012,6.3369,0.8633,8.4239
			C930.5527,656.4053,934.3213,656.0186,936.4082,653.4541z"/>
		<path fill="#CAB23D" d="M962.7627,670.2139c2.0869-2.5645,1.708-6.336-0.8604-8.4268c-2.5605-2.0879-6.332-1.6973-8.4189,0.8672
			c-2.0869,2.5644-1.708,6.3291,0.8604,8.4199C956.9082,673.165,960.6758,672.7783,962.7627,670.2139z"/>
		<path fill="#CAB23D" d="M997.3154,564.0059c-3.29-0.3389-6.2334,2.0478-6.5722,5.3418c-0.3477,3.2832,2.0439,6.2304,5.33,6.5732
			c3.2901,0.3389,6.2334-2.0439,6.5772-5.3379C1002.9893,567.2969,1000.6025,564.3535,997.3154,564.0059z"/>
		<path fill="#CAB23D" d="M999.7383,593.6113c-3.2901-0.3427-6.2295,2.044-6.5733,5.334c-0.3388,3.291,2.044,6.2344,5.3301,6.5733
			c3.2949,0.3398,6.2334-2.044,6.5772-5.334C1005.4121,596.8945,1003.0244,593.9512,999.7383,593.6113z"/>
		<path fill="#CAB23D" d="M1000.1563,624.8428c-3.2863-0.3428-6.2335,2.0439-6.5723,5.334
			c-0.3438,3.2861,2.0469,6.2334,5.334,6.5732c3.2861,0.3389,6.2333-2.0479,6.576-5.334
			C1005.834,628.125,1003.4473,625.1816,1000.1563,624.8428z"/>
		<path fill="#CAB23D" d="M1000.3809,809.6494c-3.0293-1.334-6.5606,0.0313-7.8985,3.0537
			c-1.3291,3.0293,0.0401,6.5645,3.0615,7.8985c3.0264,1.3329,6.5616-0.0323,7.8956-3.0616
			C1004.7764,814.5176,1003.4033,810.9824,1000.3809,809.6494z"/>
		<path fill="#CAB23D" d="M1007.1553,780.7305c-3.0264-1.334-6.5606,0.0351-7.8907,3.0615
			c-1.3369,3.0215,0.0323,6.5566,3.0577,7.8906c2.8878,1.2783,6.2177,0.0625,7.6777-2.6797v-5.5977
			C1009.3926,782.2607,1008.4336,781.29,1007.1553,780.7305z"/>
		<path fill="#CAB23D" d="M1010,760.8457v-8.9912c-0.6426,0.5557-1.1875,1.25-1.5547,2.0869
			C1007.3604,756.3955,1008.082,759.165,1010,760.8457z"/>
		<path fill="#CAB23D" d="M1005.0449,676.124c-2.5918-11.4492-28.4541-120.3008-70.2861-101.3076
			c-43.7295,19.8525,28.5361,96.794,69.3584,102.1523c-3.8389,3.7559-5.3574,9.212-4.1699,14.3057
			c-10.5967-5.0224-112.2168-51.8691-123.0938-7.2324c-11.3945,46.7637,94.2296,37.248,123.374,8.2891
			c0.4541,1.456,1.128,2.8681,2.0479,4.1826c1.9609,2.8125,4.7021,4.7422,7.7246,5.7324v-28.8682
			c-1.373,0.4502-2.7021,1.1006-3.9492,1.9688C1005.6992,675.5957,1005.3721,675.8555,1005.0449,676.124z"/>
		<path fill="#CAB23D" d="M66.7607,226.374C54.1157,201.4258,23.8179,216.6113,0,241.7471v48.979
			C34.1367,278.0044,81.1118,254.6895,66.7607,226.374z"/>
		<path fill="#CAB23D" d="M0,304.1064v29.5391c31.5703,18.1304,79.0898,39.1172,91.6968,10.1411
			C106.916,308.7998,43.6489,296.125,0,304.1064z"/>
		<path fill="#CAB23D" d="M0,434.0356c4.7622,2.5054,10.1514,3.2789,16.2646,1.7124C49.9277,427.1216,29.0078,378.4717,0,347.5327
			V434.0356z"/>
		<path fill="#CAB23D" d="M1.7734,209.2139c2.5015,2.1582,6.2808,1.8857,8.4468-0.6133c2.1582-2.5054,1.8819-6.2852-0.6172-8.4448
			c-2.5053-2.1621-6.2812-1.8902-8.4472,0.6171c-0.5342,0.6177-0.917,1.314-1.1558,2.0459v3.6788
			C0.3237,207.5156,0.9053,208.4663,1.7734,209.2139z"/>
		<path fill="#CAB23D" d="M64.5869,287.2129c-0.0278,3.31,2.6294,6.0088,5.9375,6.0342c3.3101,0.0239,6.0088-2.6333,6.0361-5.9414
			c0.024-3.3062-2.6352-6.0069-5.9433-6.0303C67.3091,281.2495,64.6104,283.9087,64.5869,287.2129z"/>
		<path fill="#CAB23D" d="M35.3521,292.4658c-0.024,3.3047,2.6333,6.0049,5.9394,6.0288c3.3081,0.0293,6.0107-2.6377,6.0347-5.9419
			c0.0234-3.3042-2.6377-6.0048-5.9458-6.0302C38.0762,286.499,35.3794,289.1602,35.3521,292.4658z"/>
		<path fill="#CAB23D" d="M4.3101,295.875c-0.0274,3.3076,2.6298,6.0088,5.9399,6.0342c3.3062,0.0254,6.0068-2.6338,6.0303-5.9414
			c0.0239-3.3067-2.6353-6.0069-5.9395-6.0308C7.0366,289.9111,4.332,292.5703,4.3101,295.875z"/>
	</g>
</g>
</svg>
